<?xml version="1.0" standalone="no"?>
<!DOCTYPE svg PUBLIC "-//W3C//DTD SVG 20010904//EN"
 "http://www.w3.org/TR/2001/REC-SVG-20010904/DTD/svg10.dtd">
<svg version="1.0" xmlns="http://www.w3.org/2000/svg"
 width="788.000000pt" height="788.000000pt" viewBox="0 0 788.000000 788.000000"
 preserveAspectRatio="xMidYMid meet">
<metadata>
Created by potrace 1.11, written by Peter Selinger 2001-2013
</metadata>
<g transform="translate(0.000000,788.000000) scale(0.100000,-0.100000)"
fill="#000000" stroke="none">
<path d="M5890 5549 c-69 -4 -138 -9 -155 -12 -16 -3 -46 -8 -65 -11 -218 -33
-478 -130 -686 -256 -239 -145 -461 -378 -597 -627 -41 -76 -112 -245 -122
-293 -2 -8 -10 -44 -19 -80 -8 -36 -18 -87 -22 -115 -3 -27 -8 -53 -10 -56 -7
-11 -6 -235 1 -304 53 -523 385 -992 890 -1253 126 -65 265 -121 355 -142 19
-5 55 -14 80 -21 25 -6 52 -12 60 -14 18 -2 96 -16 125 -21 108 -21 474 -21
591 0 11 2 40 6 65 10 205 30 281 58 303 111 11 24 13 328 12 1490 -1 1624 5
1488 -71 1524 -36 17 -135 41 -235 55 -110 17 -337 23 -500 15z"/>
<path d="M1233 5522 c-53 -8 -53 -7 -53 -539 0 -480 1 -494 20 -513 22 -22 5
-21 362 -22 169 -1 232 -4 245 -13 17 -13 18 -72 18 -1014 l0 -1001 23 -22 23
-23 659 -2 660 -1 30 25 30 25 0 1003 c0 790 3 1005 13 1013 7 6 118 10 301
10 280 0 289 1 310 21 21 21 21 27 21 509 1 289 -3 496 -8 509 -6 13 -19 26
-31 30 -20 7 -2576 12 -2623 5z"/>
</g>
</svg>
